<?xml version="1.0" standalone="no"?><!DOCTYPE svg PUBLIC "-//W3C//DTD SVG 1.1//EN" "http://www.w3.org/Graphics/SVG/1.1/DTD/svg11.dtd"><svg t="1589100438142" class="icon" viewBox="0 0 1024 1024" version="1.1" xmlns="http://www.w3.org/2000/svg" p-id="2133" xmlns:xlink="http://www.w3.org/1999/xlink" width="128" height="128"><defs><style type="text/css"></style></defs><path d="M512 0.027306C232.242127-2.788619 3.085571 226.154609 0.013653 511.586998c1.066638 222.287406 142.417536 418.548839 350.027999 485.960374 25.599317 4.735874 34.900403-10.922375 34.900403-24.746007v-86.909682c-142.417536 30.889843-172.667396-68.392843-172.667396-68.392843a135.50572 135.50572 0 0 0-56.787819-75.048665c-46.548092-31.316498 3.711901-30.847177 3.711901-30.847178 32.596464 4.437215 61.395696 23.892696 78.205915 52.691928a109.138423 109.138423 0 0 0 148.902696 42.28154c2.645263-26.025973 14.164956-50.217328 32.596464-68.392843-113.575638-12.799659-232.697795-56.531826-232.697795-252.707928a199.418682 199.418682 0 0 1 51.62529-138.236314 182.949788 182.949788 0 0 1 5.119864-134.865737s43.305512-13.780966 139.644276 52.265273a487.453668 487.453668 0 0 1 255.993173 0c97.746727-66.046239 139.644276-52.265273 139.644276-52.265273 18.858164 42.580198 20.692782 90.962908 5.119864 134.908403a199.24802 199.24802 0 0 1 54.441215 137.255006c0 196.688088-120.060798 239.865604-232.697795 252.707928 24.959334 24.746007 37.758993 59.603744 34.900403 94.973468v140.156262c0 16.639556 9.301085 29.908536 34.900402 24.703341C881.910136 929.282526 1022.706381 733.405083 1023.986347 511.586998 1020.914429 226.111944 791.757873-2.831284 512 0.027306" fill="#2c2c2c" p-id="2134"></path></svg>