<?xml version="1.0" standalone="no"?><!DOCTYPE svg PUBLIC "-//W3C//DTD SVG 1.1//EN" "http://www.w3.org/Graphics/SVG/1.1/DTD/svg11.dtd"><svg t="1589178405060" class="icon" viewBox="0 0 1024 1024" version="1.1" xmlns="http://www.w3.org/2000/svg" p-id="5338" xmlns:xlink="http://www.w3.org/1999/xlink" width="128" height="128"><defs><style type="text/css"></style></defs><path d="M623.7 719c-8.8-20.8-37.2-56.9-84.3-107.3-13.1-13.1-12-24.1-7.7-53.6v-3.3c3.3-20.8 8.8-32.9 78.8-43.8 36.1-5.5 44.9 8.8 58 28.4 1.1 2.2 3.3 4.4 4.4 6.6 12 17.5 21.9 21.9 35 28.5 6.6 3.3 14.2 6.6 24.1 12.1 24.1 14.2 24.1 29.5 24.1 64.6v4.4c0 55.8-20.8 85.4-28.5 95.2-30.5 26.5-65.8 46.9-104 60.2 19.8-37.3 5.6-80 0.1-92zM518.6 183.7c50.3 0 97.4 10.9 139 31.7-23 14.2-56.9 37.2-70.1 56.9-5.1 6-9.5 12.7-13.1 19.7-13.1 19.7-19.7 29.6-31.8 30.7-6.6 1.1-14.2 0-23 0-23-1.1-55.8-3.3-65.7 24.1-6.6 17.5-7.7 65.7 13.1 89.8 3.3 4.4 4.4 10.9 2.2 19.7-3.3 11-8.8 17.5-10.9 18.6-3.3-2.2-11-11-15.3-16.4-12-14.2-26.3-30.7-46-36.1-6.6-2.2-14.2-3.3-21.9-5.5-20.8-4.4-43.8-8.8-49.3-20.8-4.4-8.8-4.4-19.7-4.4-32.9 0-15.3 0-32.8-7.7-50.3-6.6-15.3-18.6-23-30.7-27.4 61.2-65.2 146.4-102 235.6-101.8zM168.3 505.5c0 193.8 156.5 350.3 350.3 350.3s350.3-156.5 350.3-350.3-156.5-350.3-350.3-350.3-350.3 156.5-350.3 350.3z m0 0" p-id="5339" fill="#2c2c2c"></path></svg>